<svg width="31" height="31" viewBox="0 0 31 31" fill="none" xmlns="http://www.w3.org/2000/svg">
<g id="Frame">
<g id="Group">
<path id="Vector" d="M12.6914 11.3819H4.83346C3.82243 11.3819 3 10.5595 3 9.54824V4.83346C3 3.82243 3.82243 3 4.83346 3H12.6914C13.7027 3 14.5251 3.82243 14.5251 4.83346V9.54824C14.5251 10.5595 13.7027 11.3819 12.6914 11.3819ZM4.83346 4.57159C4.76403 4.57165 4.69745 4.59925 4.64835 4.64835C4.59925 4.69745 4.57165 4.76403 4.57159 4.83346V9.54824C4.57161 9.61771 4.59919 9.68433 4.6483 9.73347C4.6974 9.7826 4.764 9.81024 4.83346 9.81031H12.6914C12.7609 9.81028 12.8276 9.78266 12.8767 9.73352C12.9259 9.68438 12.9535 9.61774 12.9535 9.54824V4.83346C12.9534 4.764 12.9258 4.6974 12.8767 4.6483C12.8275 4.59919 12.7609 4.57161 12.6914 4.57159H4.83346ZM12.6914 28.1455H4.83346C3.82243 28.1455 3 27.3231 3 26.312V15.3109C3 14.2997 3.82243 13.4772 4.83346 13.4772H12.6914C13.7027 13.4772 14.5251 14.2997 14.5251 15.3109V26.312C14.5251 27.3231 13.7027 28.1455 12.6914 28.1455ZM4.83346 15.0488C4.764 15.0489 4.6974 15.0765 4.6483 15.1257C4.59919 15.1748 4.57161 15.2414 4.57159 15.3109V26.312C4.57165 26.3815 4.59925 26.4481 4.64835 26.4972C4.69745 26.5463 4.76403 26.5739 4.83346 26.5739H12.6914C12.7609 26.5739 12.8275 26.5463 12.8767 26.4972C12.9258 26.4481 12.9534 26.3815 12.9535 26.312V15.3109C12.9535 15.2414 12.9259 15.1747 12.8767 15.1256C12.8276 15.0765 12.7609 15.0489 12.6914 15.0488H4.83346ZM26.312 28.1455H18.4541C17.4429 28.1455 16.6204 27.3231 16.6204 26.312V21.5973C16.6204 20.586 17.4429 19.7636 18.4541 19.7636H26.312C27.3231 19.7636 28.1455 20.586 28.1455 21.5973V26.312C28.1455 27.3231 27.3231 28.1455 26.312 28.1455ZM18.4541 21.3352C18.3846 21.3352 18.3179 21.3628 18.2688 21.412C18.2197 21.4611 18.192 21.5278 18.192 21.5973V26.312C18.1921 26.3815 18.2197 26.4481 18.2689 26.4972C18.318 26.5463 18.3846 26.5739 18.4541 26.5739H26.312C26.3815 26.5739 26.4481 26.5463 26.4972 26.4972C26.5463 26.4481 26.5739 26.3815 26.5739 26.312V21.5973C26.5739 21.5278 26.5463 21.4612 26.4972 21.412C26.4481 21.3629 26.3815 21.3353 26.312 21.3352H18.4541ZM26.312 17.6683H18.4541C17.4429 17.6683 16.6204 16.8458 16.6204 15.8346V4.83346C16.6204 3.82243 17.4429 3 18.4541 3H26.312C27.3231 3 28.1455 3.82243 28.1455 4.83346V15.8346C28.1455 16.8458 27.3231 17.6683 26.312 17.6683ZM18.4541 4.57159C18.3846 4.57161 18.318 4.59919 18.2689 4.6483C18.2197 4.6974 18.1921 4.764 18.192 4.83346V15.8346C18.192 15.9041 18.2197 15.9708 18.2688 16.0199C18.3179 16.069 18.3846 16.0967 18.4541 16.0967H26.312C26.3815 16.0966 26.4481 16.069 26.4972 16.0198C26.5463 15.9707 26.5739 15.9041 26.5739 15.8346V4.83346C26.5739 4.76403 26.5463 4.69745 26.4972 4.64835C26.4481 4.59925 26.3815 4.57165 26.312 4.57159H18.4541Z" fill="#075B5D"/>
</g>
</g>
</svg>
