<svg width="25" height="27" viewBox="0 0 25 27" fill="none" xmlns="http://www.w3.org/2000/svg">
<g id="Setting">
<path id="Path_33946" fill-rule="evenodd" clip-rule="evenodd" d="M22.993 8.61796L22.2149 7.26784C21.5567 6.12544 20.098 5.73134 18.9541 6.38684V6.38684C18.4095 6.70762 17.7598 6.79863 17.148 6.6398C16.5363 6.48097 16.0129 6.08534 15.6932 5.54015C15.4875 5.19363 15.377 4.79893 15.3728 4.39599V4.39599C15.3914 3.74997 15.1477 3.12394 14.6972 2.66053C14.2467 2.19711 13.6278 1.93577 12.9815 1.93604H11.414C10.7809 1.93603 10.1738 2.18833 9.72715 2.63712C9.28051 3.08591 9.03112 3.69418 9.03416 4.32734V4.32734C9.0154 5.6346 7.95025 6.68445 6.64286 6.68432C6.23991 6.68013 5.84522 6.56962 5.49869 6.36395V6.36395C4.35473 5.70846 2.89604 6.10256 2.23782 7.24496L1.40258 8.61796C0.745162 9.75893 1.1339 11.2167 2.27215 11.8788V11.8788C3.01203 12.306 3.46781 13.0954 3.46781 13.9498C3.46781 14.8041 3.01203 15.5935 2.27215 16.0207V16.0207C1.13535 16.6784 0.746184 18.1326 1.40258 19.2701V19.2701L2.19206 20.6317C2.50046 21.1882 3.0179 21.5988 3.62989 21.7727C4.24188 21.9467 4.89795 21.8696 5.45293 21.5585V21.5585C5.9985 21.2401 6.64864 21.1529 7.25882 21.3162C7.86901 21.4795 8.38869 21.8797 8.70235 22.428C8.90802 22.7746 9.01854 23.1692 9.02272 23.5722V23.5722C9.02272 24.8929 10.0933 25.9635 11.414 25.9635H12.9815C14.2978 25.9635 15.3665 24.8998 15.3728 23.5836V23.5836C15.3698 22.9485 15.6207 22.3385 16.0699 21.8893C16.519 21.4402 17.129 21.1893 17.7641 21.1923C18.1661 21.2031 18.5592 21.3131 18.9083 21.5127V21.5127C20.0493 22.1701 21.507 21.7814 22.1692 20.6431V20.6431L22.993 19.2701C23.3118 18.7228 23.3994 18.071 23.2361 17.4589C23.0729 16.8469 22.6725 16.3251 22.1234 16.0093V16.0093C21.5744 15.6934 21.1739 15.1717 21.0107 14.5596C20.8475 13.9476 20.935 13.2957 21.2538 12.7484C21.4612 12.3864 21.7614 12.0862 22.1234 11.8788V11.8788C23.2548 11.2171 23.6427 9.76781 22.993 8.6294V8.6294V8.61796Z" stroke="#075B5D" stroke-width="2" stroke-linecap="round" stroke-linejoin="round"/>
<circle id="Ellipse_737" cx="12.2035" cy="13.95" r="3.2952" stroke="#075B5D" stroke-width="2" stroke-linecap="round" stroke-linejoin="round"/>
</g>
</svg>
