<svg width="31" height="31" viewBox="0 0 31 31" fill="none" xmlns="http://www.w3.org/2000/svg">
<g id="Frame">
<g id="Group">
<path id="Vector" fill-rule="evenodd" clip-rule="evenodd" d="M15.9847 6.83496C14.9247 6.86126 13.9169 7.30081 13.1765 8.05981C12.4361 8.81881 12.0217 9.83714 12.0217 10.8975C12.0217 11.9578 12.4361 12.9761 13.1765 13.7351C13.9169 14.4941 14.9247 14.9337 15.9847 14.96C17.0447 14.9337 18.0524 14.4941 18.7928 13.7351C19.5332 12.9761 19.9476 11.9578 19.9476 10.8975C19.9476 9.83714 19.5332 8.81881 18.7928 8.05981C18.0524 7.30081 17.0447 6.86126 15.9847 6.83496ZM15.9847 8.70996C16.272 8.71004 16.5565 8.76672 16.822 8.87676C17.0874 8.9868 17.3286 9.14805 17.5317 9.35129C17.7349 9.55453 17.896 9.7958 18.0059 10.0613C18.1157 10.3268 18.1723 10.6114 18.1722 10.8987C18.1721 11.1861 18.1154 11.4706 18.0054 11.736C17.8953 12.0015 17.7341 12.2426 17.5308 12.4458C17.3276 12.6489 17.0863 12.81 16.8208 12.9199C16.5553 13.0298 16.2708 13.0863 15.9834 13.0862C15.4031 13.086 14.8466 12.8554 14.4364 12.4449C14.0261 12.0344 13.7958 11.4778 13.7959 10.8975C13.7961 10.3171 14.0268 9.76064 14.4373 9.35041C14.8477 8.94017 15.4044 8.7098 15.9847 8.70996Z" fill="#075B5D"/>
<path id="Vector_2" fill-rule="evenodd" clip-rule="evenodd" d="M15.9847 1.83496C13.5816 1.83629 11.2772 2.79151 9.57798 4.49077C7.87872 6.19003 6.9235 8.49434 6.92217 10.8975C6.92217 13.3125 8.27467 16.0662 9.94967 18.4812C12.3484 21.9425 15.3484 24.7112 15.3484 24.7112C15.5218 24.871 15.7489 24.9597 15.9847 24.9597C16.2204 24.9597 16.4476 24.871 16.6209 24.7112C16.6209 24.7112 19.6209 21.9425 22.0197 18.4812C23.6947 16.0662 25.0472 13.3125 25.0472 10.8975C25.0458 8.49434 24.0906 6.19003 22.3914 4.49077C20.6921 2.79151 18.3878 1.83629 15.9847 1.83496ZM15.9847 3.70996C17.8907 3.71062 19.7185 4.46809 21.0663 5.81586C22.414 7.16364 23.1715 8.99142 23.1722 10.8975C23.1722 12.9825 21.9247 15.3287 20.4797 17.4137C18.8609 19.7487 16.9547 21.7512 15.9847 22.7175C15.0147 21.7512 13.1084 19.7487 11.4897 17.4137C10.0447 15.3287 8.79717 12.9825 8.79717 10.8975C8.79784 8.99142 9.5553 7.16364 10.9031 5.81586C12.2508 4.46809 14.0786 3.71062 15.9847 3.70996Z" fill="#075B5D"/>
<path id="Vector_3" fill-rule="evenodd" clip-rule="evenodd" d="M22.6109 21.1339C23.4084 21.4764 24.0622 21.8751 24.5084 22.3314C24.8347 22.6626 25.0472 23.0139 25.0472 23.3977C25.0472 24.0889 24.4422 24.6577 23.5734 25.1752C21.8634 26.1964 19.0972 26.8352 15.9847 26.8352C12.8722 26.8352 10.1059 26.1964 8.39592 25.1752C7.52717 24.6577 6.92217 24.0889 6.92217 23.3977C6.92217 23.0139 7.13467 22.6626 7.46092 22.3314C7.90717 21.8751 8.56092 21.4764 9.35842 21.1339C9.57983 21.0314 9.75254 20.8465 9.83986 20.6187C9.92718 20.3908 9.92222 20.1379 9.82604 19.9137C9.72987 19.6894 9.55005 19.5115 9.32479 19.4177C9.09953 19.3239 8.84658 19.3217 8.61967 19.4114C6.33092 20.3914 5.04717 21.8864 5.04717 23.3977C5.04717 24.6389 5.87467 25.8552 7.43467 26.7864C9.36467 27.9377 12.4734 28.7102 15.9847 28.7102C19.4959 28.7102 22.6047 27.9377 24.5347 26.7864C26.0947 25.8552 26.9222 24.6389 26.9222 23.3977C26.9222 21.8864 25.6384 20.3914 23.3497 19.4114C23.1228 19.3217 22.8698 19.3239 22.6446 19.4177C22.4193 19.5115 22.2395 19.6894 22.1433 19.9137C22.0471 20.1379 22.0422 20.3908 22.1295 20.6187C22.2168 20.8465 22.3895 21.0314 22.6109 21.1339Z" fill="#075B5D"/>
</g>
</g>
</svg>
