<svg width="31" height="31" viewBox="0 0 31 31" fill="none" xmlns="http://www.w3.org/2000/svg">
<g id="category_24dp_FILL0_wght300_GRAD0_opsz24 1">
<path id="Vector" d="M9.97498 14.2492L15.9847 4.39355L21.9944 14.2492H9.97498ZM22.8597 27.9992C21.4253 27.9992 20.2094 27.5004 19.2119 26.5029C18.2144 25.5054 17.7156 24.2895 17.7156 22.8551C17.7156 21.4207 18.2144 20.2048 19.2119 19.2073C20.2094 18.2098 21.4253 17.7111 22.8597 17.7111C24.294 17.7111 25.51 18.2098 26.5075 19.2073C27.505 20.2048 28.0037 21.4207 28.0037 22.8551C28.0037 24.2895 27.505 25.5054 26.5075 26.5029C25.51 27.5004 24.294 27.9992 22.8597 27.9992ZM5.21561 27.3742V18.3361H14.2537V27.3742H5.21561ZM22.8594 26.1245C23.7746 26.1245 24.5483 25.8085 25.1806 25.1764C25.8129 24.5443 26.129 23.7706 26.129 22.8554C26.129 21.9402 25.813 21.1665 25.1809 20.5342C24.5488 19.9019 23.7752 19.5857 22.86 19.5857C21.9448 19.5857 21.171 19.9018 20.5387 20.5339C19.9064 21.1659 19.5903 21.9396 19.5903 22.8548C19.5903 23.77 19.9063 24.5438 20.5384 25.1761C21.1705 25.8083 21.9441 26.1245 22.8594 26.1245ZM7.09029 25.4995H12.379V20.2107H7.09029V25.4995ZM13.2828 12.3745H18.6865L15.9847 8.02824L13.2828 12.3745Z" fill="#075B5D"/>
</g>
</svg>
