<svg width="31" height="31" viewBox="0 0 31 31" fill="none" xmlns="http://www.w3.org/2000/svg">
<g id="Frame">
<g id="Group">
<path id="Vector" d="M11.3264 2.41797H12.3671V5.54022H11.3264V2.41797ZM13.4079 2.41797H14.4486V3.45912H13.4079V2.41797ZM15.4894 2.41797H19.6524V6.58097H20.6931V7.62172H16.5301V6.58097H18.6116V4.49947H17.5705V3.45912H16.5301V4.49947H15.4894V2.41797ZM3 2.41797V9.70321H10.2852V2.41797H3ZM9.2449 8.66287H4.04115V3.45912H9.2449V8.66287ZM21.7339 2.41797V9.70321H29.0195V2.41797H21.7339ZM27.9788 8.66287H22.7746V3.45912H27.9788V8.66287Z" fill="#075B5D"/>
<path id="Vector_2" d="M5.0815 4.49902H8.20375V7.62127H5.0815V4.49902ZM14.4486 4.49902H15.4898V5.53977H14.4486V4.49902ZM23.8154 4.49902H26.938V7.62127H23.8154V4.49902ZM12.3667 5.53977H14.4486V6.58052H13.4079V7.62127H14.4486V9.70277H15.4894V11.7843H14.4486V10.7439H13.4079V8.66242H12.3667V10.7439H13.4079V11.7843H11.3264V7.62127H12.3667V5.53977Z" fill="#075B5D"/>
<path id="Vector_3" d="M15.4894 8.66309H16.5301V9.70384H15.4894V8.66309ZM17.5705 8.66309H18.6116V9.70384H17.5705V8.66309ZM19.6524 8.66309H20.6935V9.70384H19.6524V8.66309ZM5.0815 10.7446H8.20375V11.7849H9.2449V12.8261H8.20375V13.8668H7.163V11.7849H5.0815V10.7446ZM9.2449 10.7446H10.2857V11.7853L9.2449 11.7849V10.7446ZM16.5301 10.7446H17.5709V11.7853H16.5301V10.7446ZM18.6116 10.7446H19.6524V12.8261H18.6116V10.7446ZM20.6931 10.7446H23.8154V12.8261H22.7746V11.7849H20.6931V10.7446ZM25.8969 10.7446H29.0195V11.7849H26.938V12.8261H29.0195V15.9483H25.8969V14.9076H26.938V13.8668H24.8561V12.8261H25.8969V10.7446Z" fill="#075B5D"/>
<path id="Vector_4" d="M10.2853 11.7852H11.3264V13.8671H13.4079V11.7852H14.4486V12.8263H17.5705V13.8671H14.4486V14.9078H12.3668V15.9486H7.163V16.9889H6.12226V13.8671H7.163V14.9078H10.2853V13.8671H9.2449V12.8263H10.2853V11.7852ZM5.08151 12.8263H6.12226V13.8671H5.08151V12.8263ZM19.6524 12.8263H20.6935V13.8671H19.6524V12.8263ZM3.00001 13.8671H5.08151V15.9486H4.04116V20.1116H3.00001V13.8671ZM17.5705 13.8671H18.6116V14.9082H17.5705V13.8671Z" fill="#075B5D"/>
<path id="Vector_5" d="M15.4894 14.9072H17.5705V16.9883H16.5301V15.948H15.4894V14.9072ZM19.6524 14.9072H20.6935V15.948H19.6524V14.9072ZM24.8561 15.948H25.8973V16.9887H24.8561V15.948ZM5.0815 16.9883H6.12225V18.0295H8.20375V19.0702H7.163V20.111H6.12225V19.0702H5.0815V16.9883ZM9.2449 16.9883H10.2857V18.0295H9.2449V16.9883Z" fill="#075B5D"/>
<path id="Vector_6" d="M25.8969 16.9883H29.0195V20.1109H27.9788V18.0294H25.8969V16.9883Z" fill="#075B5D"/>
<path id="Vector_7" d="M24.8561 19.0707V16.9892H23.8154V15.9484H22.7746V14.9077H23.8154V15.9484H24.8561V13.8669H22.7746V12.8262H21.7339V13.8669H20.6931V14.9077H21.7339V16.9888H22.7746V19.0703H19.6524V18.0299H21.7339V16.9888H19.6524V15.948H18.6116V16.9888H17.5705V19.0703H16.5297V20.1114H15.489V19.0707L16.5297 19.0703V16.9892H15.489V18.0299H14.4486V16.9888H15.4894V15.948H12.3667V16.9888H13.4079V18.0299H10.2852V19.0707H8.20375V20.1114H11.3264V19.0707H14.4486V20.1114H11.3264V21.1522H13.4079V22.1929H12.3667V23.2337H11.326V26.3563H12.3667V25.3152H13.4079V23.2337H14.4486V22.1929H15.4894V21.1522H17.5705V20.1114H18.6116V22.1929H19.6524V24.2744H18.6116V22.1929H16.5301V23.2337H14.4486V25.3152H15.4894V24.2744H17.5705V25.3152H19.652V26.3563H20.6931V25.3152H21.7339V24.2744H23.8154V25.3152H25.8969V24.2744H24.8561V23.2337H25.8969V22.1929H24.8561V21.1522H25.8969V20.1114H26.938V19.0707H24.8561ZM23.8154 23.2337H20.6931V20.1114H23.8154V23.2337ZM26.938 20.1114H27.9788V21.1522H29.0195V22.1929H26.938V20.1114Z" fill="#075B5D"/>
<path id="Vector_8" d="M21.7339 21.1523H22.775V22.1935H21.7339V21.1523ZM3.00001 21.1523V28.438H10.2853V21.1523H3.00001ZM9.2449 27.3972H4.04116V22.1931H9.2449V27.3972Z" fill="#075B5D"/>
<path id="Vector_9" d="M5.0815 23.2334H8.20375V26.356H5.0815V23.2334ZM25.8969 23.2334H26.938V24.2741H25.8969V23.2334ZM27.9788 24.2741H29.0195V28.4375H24.8561V27.3968H27.9788V24.2741ZM15.4894 25.3149H17.5705V26.356H15.4894V25.3149ZM21.7339 25.3149H23.8154V26.356H24.8561V27.3968H22.7746V28.4375H20.6931V27.3968H21.7339V25.3149Z" fill="#075B5D"/>
<path id="Vector_10" d="M25.8969 25.3145H26.938V26.3556H25.8969V25.3145ZM14.4486 26.3556H15.4898V27.3968H14.4486V26.3556ZM17.5705 27.3964H19.652V28.4371H17.5705V27.3964Z" fill="#075B5D"/>
</g>
</g>
</svg>
