<svg width="31" height="31" viewBox="0 0 31 31" fill="none" xmlns="http://www.w3.org/2000/svg">
<g id="Frame">
<g id="Group">
<path id="Vector" d="M13.9632 15.8832C13.7042 15.8832 13.495 15.674 13.495 15.415C13.495 15.1561 13.7042 14.9469 13.9632 14.9469H18.6056C18.8628 14.9469 19.0737 15.1561 19.0737 15.415C19.0737 15.674 18.8628 15.8832 18.6056 15.8832H13.9632ZM13.9632 17.8016C13.7042 17.8016 13.495 17.5924 13.495 17.3334C13.495 17.0744 13.7042 16.8652 13.9632 16.8652H18.6056C18.8628 16.8652 19.0737 17.0744 19.0737 17.3334C19.0737 17.5924 18.8628 17.8016 18.6056 17.8016H13.9632ZM19.0972 19.192H24.3724C24.6314 19.192 24.8423 19.4012 24.8423 19.6602V24.9354C24.8423 25.1943 24.6314 25.4053 24.3724 25.4053H19.0972C18.8382 25.4053 18.629 25.1943 18.629 24.9354V19.6602C18.6284 19.4012 18.8376 19.192 19.0972 19.192ZM23.9036 20.1307H19.5671V24.4672H23.9036V20.1307ZM27.2353 14.5449L24.0396 16.5096C23.7255 16.7023 23.3253 16.4732 23.3253 16.1094V12.1748C23.3253 11.8109 23.7255 11.5754 24.0513 11.7828L27.2417 13.7428C27.5446 13.9285 27.5358 14.3668 27.2353 14.5449ZM25.1511 14.7277L26.1026 14.1412L24.2622 13.0115V15.2721L25.1511 14.7277ZM21.2394 10.308H25.9562V3.03594H8.08975V20.3129C8.25088 19.9508 8.35225 19.4639 8.48643 18.8164C8.54971 18.5076 8.62119 18.1654 8.7126 17.767C8.91182 16.8881 9.30908 16.342 9.76553 16.0777C10.3087 15.7619 10.9351 15.8369 11.4196 16.2189C11.8649 16.5693 12.2019 17.1904 12.2552 17.9961C12.305 18.752 12.0905 19.383 12.0296 20.082H14.9276C16.2964 20.082 16.9175 21.6699 16.1382 22.6186C16.5964 23.1898 16.5917 24.0172 16.1247 24.5832C16.5114 25.1012 16.5384 25.8588 16.161 26.3938H25.9556V17.9762H21.2388C20.6142 17.9762 20.1044 17.4664 20.1044 16.8418V11.4424C20.105 10.8178 20.6147 10.308 21.2394 10.308ZM26.8931 10.308H28.4827C29.1091 10.308 29.6189 10.8178 29.6189 11.4424V16.8418C29.6189 17.4664 29.1091 17.9762 28.4827 17.9762H26.8931V26.8619C26.8931 26.9234 26.8811 26.9843 26.8576 27.0412C26.8341 27.098 26.7996 27.1496 26.7561 27.1931C26.7126 27.2366 26.661 27.2711 26.6042 27.2946C26.5473 27.3181 26.4864 27.3302 26.4249 27.3301H16.144C16.2319 28.2553 15.4315 29.0574 14.4483 29.0574H10.3538C8.1583 29.0574 8.33057 28.1287 6.35596 28.1287C6.35596 28.4545 6.27627 28.7064 6.04893 28.9344C5.95219 29.0315 5.83721 29.1085 5.71061 29.1609C5.58401 29.2134 5.44828 29.2404 5.31123 29.2402H3.3583C2.7835 29.2402 2.31358 28.7721 2.31358 28.1955V20.951C2.31358 20.3744 2.7835 19.9063 3.3583 19.9063H5.31182C5.88662 19.9063 6.35654 20.3744 6.35654 20.951V21.2533C6.67354 21.2281 6.93428 21.1871 7.15225 21.1221V2.56777C7.15217 2.50627 7.16423 2.44536 7.18773 2.38852C7.21123 2.33169 7.24571 2.28005 7.2892 2.23656C7.33269 2.19307 7.38433 2.15859 7.44116 2.13509C7.498 2.11159 7.55891 2.09953 7.62041 2.09961H26.4255C26.487 2.09953 26.5479 2.11159 26.6047 2.13509C26.6616 2.15859 26.7132 2.19307 26.7567 2.23656C26.8002 2.28005 26.8347 2.33169 26.8582 2.38852C26.8817 2.44536 26.8937 2.50627 26.8937 2.56777V10.308H26.8931ZM28.4827 11.2443H21.2394C21.1315 11.2443 21.0419 11.334 21.0419 11.4418V16.8412C21.0419 16.949 21.1315 17.0387 21.2394 17.0387H28.4827C28.5905 17.0387 28.6802 16.949 28.6802 16.8412V11.4418C28.6802 11.334 28.5905 11.2443 28.4827 11.2443ZM9.64776 13.1381C9.38877 13.1381 9.17959 12.9271 9.17959 12.6682C9.17959 12.4092 9.38877 12.2 9.64776 12.2H18.605C18.8622 12.2 19.0731 12.4092 19.0731 12.6682C19.0731 12.9271 18.8622 13.1381 18.605 13.1381H9.64776ZM9.64776 10.9238C9.38877 10.9238 9.17959 10.7129 9.17959 10.4539C9.17959 10.1967 9.38877 9.98574 9.64776 9.98574H18.605C18.8622 9.98574 19.0731 10.1967 19.0731 10.4539C19.0731 10.7129 18.8622 10.9238 18.605 10.9238H9.64776ZM12.7702 4.25879H21.2739C21.5312 4.25879 21.7421 4.46797 21.7421 4.72695V8.38789C21.7421 8.64688 21.5312 8.85605 21.2739 8.85605H12.7702C12.513 8.85605 12.3021 8.64688 12.3021 8.38789V4.72695C12.3021 4.46797 12.513 4.25879 12.7702 4.25879ZM20.8046 5.1957H13.2407V7.91973H20.8046V5.1957ZM6.35596 22.1914V27.1906C8.59658 27.1906 8.43018 28.1205 10.3538 28.1205H14.4478C15.0771 28.1205 15.3894 27.5193 15.114 27.1654C15.0823 27.1238 14.9792 27.0061 14.9446 26.9943H12.37C12.111 26.9943 11.9019 26.7834 11.9019 26.5262C11.9019 26.2672 12.111 26.0563 12.37 26.0563H15.0542C15.1972 26.0311 15.3003 25.9713 15.37 25.8916C15.513 25.727 15.5294 25.4732 15.448 25.2723C15.4099 25.1809 15.3519 25.0977 15.2722 25.0379H12.3706C12.1116 25.0379 11.9024 24.8287 11.9024 24.5697C11.9024 24.3107 12.1116 24.1016 12.3706 24.1016H15.2774C15.3706 24.0383 15.4386 23.9586 15.4819 23.8672C15.5634 23.6996 15.5634 23.4869 15.4819 23.3176C15.4386 23.2279 15.3706 23.1465 15.2774 23.0832H12.3706C12.1116 23.0832 11.9024 22.874 11.9024 22.615C11.9024 22.3561 12.1116 22.1469 12.3706 22.1469H15.2786C15.4034 22.0637 15.4814 21.9523 15.5159 21.8311C15.6255 21.4689 15.3981 21.0207 14.9282 21.0207H11.555C11.2989 21.0207 11.095 20.8215 11.0868 20.5508C11.0452 19.591 11.371 18.81 11.3212 18.0547C11.2333 16.7129 10.0374 16.1615 9.62549 17.9715C9.54053 18.3383 9.46963 18.6893 9.40283 19.008C8.92354 21.3096 8.76944 22.049 6.35596 22.1914ZM5.31123 20.8432H3.3583C3.30029 20.8432 3.25225 20.893 3.25225 20.951V28.1961C3.25225 28.2541 3.30029 28.3039 3.3583 28.3039H5.31182C5.36983 28.3039 5.41787 28.2541 5.41787 28.1961V20.951C5.41729 20.893 5.36924 20.8432 5.31123 20.8432Z" fill="#075B5D"/>
</g>
</g>
</svg>
