<svg width="31" height="31" viewBox="0 0 31 31" fill="none" xmlns="http://www.w3.org/2000/svg">
<g id="ri:notification-3-line">
<path id="Vector" d="M25.9847 21.9209H28.4847V24.4209H3.48467V21.9209H5.98467V13.1709C5.98467 10.5187 7.03824 7.97519 8.9136 6.09983C10.789 4.22447 13.3325 3.1709 15.9847 3.1709C18.6368 3.1709 21.1804 4.22447 23.0557 6.09983C24.9311 7.97519 25.9847 10.5187 25.9847 13.1709V21.9209ZM23.4847 21.9209V13.1709C23.4847 11.1818 22.6945 9.27412 21.288 7.8676C19.8815 6.46108 17.9738 5.6709 15.9847 5.6709C13.9955 5.6709 12.0879 6.46108 10.6814 7.8676C9.27485 9.27412 8.48467 11.1818 8.48467 13.1709V21.9209H23.4847ZM12.2347 26.9209H19.7347V29.4209H12.2347V26.9209Z" fill="#075B5D"/>
</g>
</svg>
