<svg width="50" height="50" viewBox="0 0 50 50" fill="none" xmlns="http://www.w3.org/2000/svg">
<g id="Frame">
<g id="Group">
<path id="Vector" fill-rule="evenodd" clip-rule="evenodd" d="M9.958 29.754H4.95C4.826 29.754 4.712 29.805 4.629 29.888C4.546 29.971 4.495 30.084 4.495 30.209V47.252C4.495 47.376 4.546 47.49 4.629 47.573C4.712 47.656 4.825 47.707 4.95 47.707H9.958C10.083 47.707 10.196 47.656 10.279 47.573C10.362 47.49 10.413 47.377 10.413 47.252V30.21C10.413 30.085 10.362 29.972 10.279 29.889C10.196 29.806 10.083 29.754 9.958 29.754ZM4.95 28.393H9.958C10.458 28.393 10.913 28.597 11.242 28.926C11.37 29.054 11.479 29.201 11.565 29.362C12.143 29.008 12.634 28.694 13.081 28.408C15.138 27.094 16.336 26.328 18.591 26.08C19.09 26.025 19.741 25.983 20.501 25.953C21.088 25.93 21.747 25.915 22.455 25.907L22.477 0.679953C22.477 0.500136 22.5484 0.327684 22.6756 0.200535C22.8027 0.0733851 22.9752 0.00195313 23.155 0.00195312L46.188 0.0219531C46.277 0.0219531 46.3652 0.0394901 46.4475 0.0735628C46.5297 0.107635 46.6045 0.157577 46.6674 0.220535C46.7304 0.283493 46.7803 0.358235 46.8144 0.440494C46.8485 0.522753 46.866 0.610917 46.866 0.699953L46.828 43.768C46.828 43.9478 46.7566 44.1202 46.6294 44.2474C46.5023 44.3745 46.3298 44.446 46.15 44.446L39.517 44.44C39.145 44.638 38.725 44.795 38.264 44.892L37.063 45.144C37.13 45.367 37.125 45.608 37.056 45.86C36.973 46.167 36.786 46.487 36.519 46.796C35.743 47.697 34.138 48.666 32.521 48.902L25.633 49.907V49.906C25.602 49.91 25.57 49.913 25.537 49.913C23.978 49.913 22.754 49.942 21.757 49.965C19.847 50.01 18.749 50.036 17.594 49.804C16.153 49.515 14.762 48.854 11.77 47.366C11.741 47.82 11.544 48.23 11.24 48.534C11.0716 48.7029 10.8715 48.837 10.6511 48.9284C10.4308 49.0199 10.1946 49.067 9.956 49.067H4.95C4.45 49.067 3.995 48.863 3.666 48.534C3.337 48.205 3.133 47.751 3.133 47.25V30.21C3.133 29.71 3.337 29.255 3.666 28.926C3.996 28.597 4.45 28.393 4.95 28.393ZM42.105 36.731C42.08 36.734 42.055 36.735 42.03 36.735H29.459C29.083 36.735 28.778 36.43 28.778 36.054C28.778 35.678 29.083 35.373 29.459 35.373H39.722C40.404 35.349 40.838 34.975 41.029 34.501C41.109 34.301 41.149 34.08 41.149 33.855C41.149 33.63 41.109 33.409 41.029 33.209C40.832 32.719 40.374 32.336 39.651 32.336C32.51 32.336 30.893 32.296 27.557 32.214C26.384 32.185 25.001 32.151 23.122 32.112C22.747 32.105 22.45 31.795 22.457 31.42V27.263C21.778 27.271 21.137 27.286 20.555 27.309C19.837 27.337 19.217 27.377 18.735 27.43C16.795 27.643 15.696 28.345 13.81 29.55C13.209 29.934 12.533 30.366 11.778 30.821C11.812 33.445 11.846 35.965 11.88 38.487C11.913 40.941 11.946 43.397 11.979 45.95C15.146 47.527 16.548 48.211 17.862 48.475C18.868 48.677 19.912 48.652 21.727 48.61C22.712 48.587 23.918 48.558 25.48 48.558L32.326 47.559C33.616 47.371 34.884 46.613 35.489 45.91C35.602 45.778 35.683 45.66 35.724 45.564C35.64 45.539 35.49 45.524 35.261 45.521C35.242 45.523 35.223 45.523 35.204 45.523H27.324C26.948 45.523 26.643 45.218 26.643 44.842C26.643 44.466 26.948 44.161 27.324 44.161H35.141L37.989 43.563C38.361 43.485 38.691 43.356 38.974 43.194C38.992 43.183 39.01 43.172 39.028 43.162C39.992 42.584 40.796 41.212 39.169 41.129H29.032C28.656 41.129 28.351 40.824 28.351 40.448C28.351 40.072 28.656 39.767 29.032 39.767H41.383C41.396 39.767 41.409 39.767 41.422 39.768H43.155C43.878 39.768 44.337 39.385 44.534 38.895C44.616 38.691 44.657 38.47 44.657 38.249C44.657 38.028 44.616 37.807 44.534 37.603C44.337 37.113 43.879 36.731 43.156 36.731H42.105ZM41.459 41.125C41.434 41.128 41.409 41.129 41.383 41.129H41.362C41.425 41.322 41.455 41.526 41.453 41.736C41.45 42.112 41.345 42.502 41.147 42.875C41.109 42.946 41.068 43.016 41.024 43.086L45.473 43.09L45.476 39.99C45.005 40.659 44.231 41.125 43.155 41.125H41.459ZM23.811 26.534C23.812 26.55 23.813 26.565 23.813 26.581V30.77C24.273 30.78 24.7 30.789 25.099 30.798L25.12 7.19095C25.112 7.05553 25.1446 6.92079 25.2137 6.80407C25.2829 6.68734 25.3854 6.59397 25.508 6.53595C25.882 6.35995 26.238 6.15095 26.571 5.91295C26.907 5.67295 27.221 5.40295 27.51 5.10595C27.801 4.80695 28.064 4.48595 28.295 4.14495C28.525 3.80595 28.727 3.44195 28.899 3.05795C28.9525 2.93825 29.0395 2.8366 29.1495 2.76526C29.2596 2.69393 29.3879 2.65596 29.519 2.65595L39.772 2.66495C39.9121 2.65477 40.052 2.68811 40.1724 2.76043C40.2929 2.83274 40.3881 2.94049 40.445 3.06895C40.614 3.44895 40.815 3.81195 41.047 4.15495C41.282 4.50295 41.543 4.82495 41.827 5.11795C42.112 5.41195 42.427 5.68195 42.767 5.92695C43.104 6.16795 43.458 6.37795 43.826 6.55195V6.55295C43.9423 6.60794 44.0407 6.69485 44.1095 6.80355C44.1784 6.91225 44.215 7.03827 44.215 7.16695L44.19 35.541C44.746 35.734 45.176 36.082 45.48 36.515L45.511 1.37995L23.833 1.35995L23.811 26.534ZM26.455 30.831C26.859 30.841 27.233 30.85 27.588 30.859C30.924 30.941 32.541 30.981 39.65 30.981C41.019 30.981 41.9 31.737 42.289 32.705C42.437 33.072 42.51 33.466 42.51 33.856C42.51 34.246 42.436 34.64 42.289 35.007C42.238 35.133 42.179 35.256 42.111 35.374H42.832L42.856 7.58295C42.547 7.41695 42.253 7.23295 41.973 7.03195C41.5713 6.74324 41.1962 6.41929 40.852 6.06395C40.5074 5.70898 40.1945 5.32451 39.917 4.91495C39.7228 4.62812 39.5471 4.32918 39.391 4.01995L29.945 4.01195C29.7871 4.31996 29.6108 4.61816 29.417 4.90495C29.137 5.31895 28.824 5.70295 28.483 6.05195C28.1376 6.40692 27.7611 6.73022 27.358 7.01795C27.0759 7.22017 26.7809 7.40389 26.475 7.56795L26.455 30.831ZM36.64 24.683C37.278 24.635 37.849 24.343 38.258 23.901C38.514 23.625 38.708 23.289 38.816 22.916H39.422C39.6018 22.916 39.7743 22.8445 39.9014 22.7174C40.0286 22.5902 40.1 22.4178 40.1 22.238C40.1 21.868 39.803 21.567 39.435 21.56L38.819 21.548C38.703 21.142 38.485 20.778 38.195 20.488C37.9665 20.2587 37.6951 20.0768 37.3961 19.9527C37.0972 19.8286 36.7767 19.7648 36.453 19.765C34.56 19.763 34.284 20.916 34.009 22.068C33.858 22.698 33.708 23.329 32.884 23.328C32.58 23.328 32.305 23.204 32.105 23.004C32.002 22.9015 31.9203 22.7796 31.8647 22.6454C31.8091 22.5112 31.7806 22.3672 31.781 22.222C31.781 21.918 31.905 21.643 32.105 21.443C32.306 21.242 32.583 21.118 32.888 21.119C33.0678 21.119 33.2403 21.0475 33.3674 20.9204C33.4946 20.7932 33.566 20.6208 33.566 20.441C33.566 20.2611 33.4946 20.0887 33.3674 19.9615C33.2403 19.8344 33.0678 19.763 32.888 19.763C32.208 19.762 31.593 20.037 31.148 20.481C30.8515 20.7768 30.6354 21.1433 30.52 21.546L29.93 21.534C29.7501 21.5305 29.5761 21.5986 29.4464 21.7232C29.3166 21.8479 29.2417 22.019 29.238 22.199V22.212H29.235V22.231C29.235 22.607 29.54 22.912 29.916 22.912C29.936 22.912 29.956 22.911 29.976 22.909H30.521C30.6359 23.3067 30.8496 23.6689 31.142 23.962C31.3705 24.1912 31.6419 24.3731 31.9409 24.4972C32.2398 24.6213 32.5603 24.6851 32.884 24.685C34.777 24.687 35.053 23.534 35.328 22.382C35.479 21.752 35.629 21.121 36.453 21.122C36.757 21.122 37.033 21.246 37.232 21.446C37.433 21.647 37.557 21.924 37.556 22.228C37.556 22.516 37.444 22.779 37.262 22.975C37.0734 23.1789 36.8149 23.3042 36.538 23.326C36.4489 23.3325 36.3619 23.3566 36.2821 23.3968C36.2023 23.437 36.1312 23.4926 36.0729 23.5603C36.0146 23.628 35.9702 23.7065 35.9422 23.7914C35.9143 23.8763 35.9033 23.9658 35.91 24.055C35.939 24.43 36.265 24.711 36.64 24.683ZM42.109 22.231C42.111 20.176 41.28 18.316 39.936 16.969C38.591 15.621 36.731 14.787 34.675 14.785C32.62 14.783 30.76 15.614 29.413 16.958C28.065 18.303 27.231 20.163 27.229 22.219C27.227 24.274 28.058 26.134 29.402 27.481C30.747 28.829 32.607 29.663 34.663 29.665C36.718 29.667 38.578 28.836 39.925 27.492C41.273 26.146 42.107 24.286 42.109 22.231ZM38.967 26.529C40.069 25.429 40.751 23.91 40.752 22.231C40.753 20.552 40.073 19.03 38.973 17.927C37.873 16.825 36.354 16.143 34.675 16.142C32.996 16.141 31.474 16.821 30.371 17.921C29.269 19.021 28.587 20.54 28.586 22.219C28.585 23.898 29.265 25.42 30.365 26.523C31.465 27.624 32.984 28.307 34.663 28.308C36.343 28.31 37.865 27.63 38.967 26.529Z" fill="#075B5D"/>
</g>
</g>
</svg>
