<svg width="30" height="30" viewBox="0 0 30 30" fill="none" xmlns="http://www.w3.org/2000/svg">
<g id="Frame" clip-path="url(#clip0_1120_9443)">
<g id="Group">
<g id="Group_2">
<path id="Vector" fill-rule="evenodd" clip-rule="evenodd" d="M22.3273 26.4656H3.58664V7.28053L8.11277 2.75439H22.3273V26.4656Z" fill="#E0DFE1"/>
<path id="Vector_2" fill-rule="evenodd" clip-rule="evenodd" d="M20.071 24.2093H1.33035V5.02418L5.85649 0.498047H20.071V24.2093Z" fill="#F0F0F0"/>
<path id="Vector_3" fill-rule="evenodd" clip-rule="evenodd" d="M1.33035 5.02418L5.85649 0.498047V5.02418H1.33035Z" fill="#E0DFE1"/>
<path id="Vector_4" d="M26.807 27.6448C29.2838 25.168 29.2838 21.1523 26.807 18.6756C24.3302 16.1988 20.3146 16.1988 17.8378 18.6756C15.361 21.1523 15.361 25.168 17.8378 27.6448C20.3146 30.1215 24.3302 30.1215 26.807 27.6448Z" fill="#075B5D"/>
<path id="Vector_5" fill-rule="evenodd" clip-rule="evenodd" d="M15.9851 23.1601C15.9851 20.3295 17.8394 17.9321 20.3994 17.1162C21.0074 16.9224 21.6551 16.8179 22.3273 16.8179C22.9995 16.8179 23.6472 16.9224 24.2551 17.1162C26.8152 17.9321 28.6695 20.3295 28.6695 23.1601H24.5867C24.5867 21.9122 23.5751 20.9006 22.3272 20.9006C21.0793 20.9006 20.0677 21.9122 20.0677 23.1601H15.9851Z" fill="#6CE75A"/>
<path id="Vector_6" fill-rule="evenodd" clip-rule="evenodd" d="M28.6695 23.1601C28.6695 20.3295 26.8152 17.9321 24.2551 17.1162C23.6472 16.9224 22.9994 16.8179 22.3273 16.8179V20.9006C23.5751 20.9006 24.5868 21.9122 24.5868 23.1601H28.6695Z" fill="#FFD54F"/>
<path id="Vector_7" fill-rule="evenodd" clip-rule="evenodd" d="M28.6694 23.1602H24.5867C24.5867 23.7841 24.3339 24.349 23.9249 24.7578L26.8118 27.6447C27.9596 26.4971 28.6694 24.9115 28.6694 23.1602Z" fill="#FF6372"/>
<path id="Vector_8" d="M22.9761 25.8842C24.487 25.5259 25.4214 24.0107 25.0631 22.4998C24.7049 20.9889 23.1896 20.0545 21.6787 20.4128C20.1678 20.7711 19.2335 22.2863 19.5917 23.7972C19.95 25.3081 21.4653 26.2425 22.9761 25.8842Z" fill="#F0F0F0"/>
<path id="Vector_9" fill-rule="evenodd" clip-rule="evenodd" d="M3.71694 10.6235H5.41259C5.49359 10.6237 5.57124 10.6559 5.62852 10.7132C5.68581 10.7705 5.71806 10.8482 5.71821 10.9292V14.1172C5.71806 14.1983 5.68581 14.2759 5.62852 14.3332C5.57124 14.3905 5.49359 14.4227 5.41259 14.4229H3.71694C3.63593 14.4227 3.55828 14.3905 3.501 14.3332C3.44372 14.2759 3.41147 14.1983 3.41132 14.1172V10.9292C3.41147 10.8482 3.44372 10.7705 3.501 10.7132C3.55828 10.6559 3.63593 10.6237 3.71694 10.6235Z" fill="#FF6372"/>
<path id="Vector_10" fill-rule="evenodd" clip-rule="evenodd" d="M7.80761 8.91943H9.5032C9.5842 8.91959 9.66185 8.95184 9.71913 9.00912C9.77642 9.0664 9.80867 9.14405 9.80882 9.22506V14.1172C9.80867 14.1982 9.77642 14.2759 9.71913 14.3332C9.66185 14.3904 9.5842 14.4227 9.5032 14.4229H7.80761C7.7266 14.4227 7.64895 14.3904 7.59167 14.3332C7.53439 14.2759 7.50214 14.1982 7.50198 14.1172V9.22506C7.50214 9.14405 7.53439 9.0664 7.59167 9.00912C7.64895 8.95184 7.7266 8.91959 7.80761 8.91943Z" fill="#FFD54F"/>
<path id="Vector_11" fill-rule="evenodd" clip-rule="evenodd" d="M11.8982 7.21533H13.5939C13.6749 7.21549 13.7525 7.24774 13.8098 7.30502C13.8671 7.3623 13.8993 7.43995 13.8995 7.52096V14.1172C13.8993 14.1982 13.8671 14.2759 13.8098 14.3331C13.7525 14.3904 13.6749 14.4227 13.5939 14.4228H11.8982C11.8172 14.4227 11.7396 14.3904 11.6823 14.3331C11.625 14.2759 11.5927 14.1982 11.5926 14.1172V7.52096C11.5927 7.43995 11.625 7.3623 11.6823 7.30502C11.7396 7.24774 11.8172 7.21549 11.8982 7.21533Z" fill="#6CE75A"/>
<path id="Vector_12" fill-rule="evenodd" clip-rule="evenodd" d="M17.9902 5.81686V14.1171C17.99 14.1981 17.9577 14.2758 17.9005 14.3331C17.8432 14.3903 17.7655 14.4226 17.6845 14.4228H15.9889C15.9079 14.4226 15.8302 14.3903 15.7729 14.3331C15.7157 14.2758 15.6834 14.1981 15.6833 14.1171V5.81686C15.6834 5.73585 15.7157 5.6582 15.7729 5.60092C15.8302 5.54364 15.9079 5.51139 15.9889 5.51123H17.6845C17.7655 5.51139 17.8432 5.54364 17.9005 5.60092C17.9577 5.6582 17.99 5.73585 17.9902 5.81686Z" fill="#075B5D"/>
<path id="Vector_13" fill-rule="evenodd" clip-rule="evenodd" d="M22.327 29.0627C23.7967 29.0627 25.1424 28.5227 26.1766 27.6311L24.293 25.7475C23.7467 26.1633 23.0653 26.4112 22.327 26.4112C20.6835 26.4112 19.3217 25.1849 19.1068 23.6H16.4407C16.6665 26.6497 19.2204 29.0627 22.327 29.0627ZM16.1818 26.0263C15.9753 25.5855 15.8174 25.1235 15.7107 24.6486H4.0265V26.0263H16.1818ZM1.77011 23.7699V5.46387H5.8562C5.91392 5.46391 5.97109 5.45258 6.02443 5.43052C6.07777 5.40847 6.12624 5.37611 6.16707 5.33531C6.20789 5.29451 6.24028 5.24606 6.26238 5.19274C6.28447 5.13941 6.29584 5.08225 6.29583 5.02453V0.937617H19.6318V16.9383C18.7247 17.3327 17.9198 17.9198 17.2699 18.6476H6.56941C6.45413 18.6495 6.34421 18.6966 6.26336 18.7788C6.1825 18.861 6.13719 18.9717 6.13719 19.087C6.13719 19.2023 6.1825 19.3129 6.26336 19.3951C6.34421 19.4773 6.45413 19.5244 6.56941 19.5263H16.6037C16.298 20.0063 16.054 20.5229 15.8775 21.064H6.56941C6.4529 21.064 6.34117 21.1103 6.25878 21.1927C6.1764 21.2751 6.1301 21.3868 6.13007 21.5033C6.13007 21.746 6.32683 21.943 6.56941 21.943H15.6554C15.5823 22.3446 15.5455 22.7521 15.5454 23.1604C15.5454 23.3654 15.5554 23.5688 15.5736 23.77H1.77011V23.7699ZM2.39179 4.5849H5.41687V1.5593L2.39179 4.5849ZM20.5108 3.19395V16.6261C20.9604 16.501 21.4219 16.4231 21.8876 16.3935V3.19395H20.5108ZM22.7666 17.2741V19.9394C24.2084 20.1353 25.3523 21.279 25.548 22.7211H28.2136C27.9989 19.8159 25.6715 17.4885 22.7666 17.2741ZM19.9551 23.1604C19.9551 21.852 21.0192 20.7879 22.327 20.7879C23.6356 20.7879 24.6994 21.852 24.6994 23.1604C24.6994 24.4682 23.6356 25.5322 22.327 25.5322C21.0192 25.5322 19.9551 24.4682 19.9551 23.1604ZM21.8876 19.9394V17.2741C18.9825 17.4885 16.6556 19.8159 16.4407 22.7211H19.1068C19.3025 21.279 20.4461 20.1353 21.8876 19.9394ZM26.7983 27.0094L24.9147 25.126C25.2543 24.6806 25.4725 24.1548 25.548 23.5999H28.2136C28.1171 24.8972 27.6005 26.0796 26.7983 27.0094ZM29.1088 23.1604C29.1088 26.8992 26.0666 29.9413 22.327 29.9413C19.9709 29.9413 17.8928 28.7339 16.6764 26.9052H3.58716C3.52942 26.9052 3.47223 26.8939 3.41888 26.8718C3.36552 26.8497 3.31704 26.8174 3.27621 26.7765C3.23538 26.7357 3.203 26.6872 3.18092 26.6339C3.15884 26.5805 3.14749 26.5233 3.14753 26.4656V24.6485H1.33048C1.27277 24.6486 1.21562 24.6372 1.1623 24.6152C1.10898 24.5931 1.06052 24.5607 1.01972 24.5199C0.978914 24.4791 0.946555 24.4307 0.924492 24.3774C0.90243 24.324 0.891098 24.2669 0.891144 24.2092V5.02453C0.891144 4.90793 0.937257 4.79602 1.01993 4.71398L5.54595 0.187383C5.62823 0.105019 5.73984 0.0586952 5.85626 0.0585938H20.0712C20.1878 0.0586714 20.2996 0.105014 20.382 0.187444C20.4644 0.269873 20.5108 0.38165 20.5109 0.498223V2.31504H22.3271C22.3848 2.31502 22.442 2.32637 22.4953 2.34846C22.5487 2.37054 22.5972 2.40292 22.638 2.44375C22.6788 2.48458 22.7112 2.53305 22.7333 2.5864C22.7554 2.63975 22.7667 2.69693 22.7667 2.75467V16.3935C26.302 16.6206 29.1088 19.5686 29.1088 23.1604ZM6.04909 8.02699C6.12612 8.02717 6.20179 8.00665 6.26817 7.96758L13.5803 3.7466L13.3957 4.45453C13.3341 4.68938 13.4753 4.92949 13.7096 4.99055C13.7471 5.00051 13.7839 5.0052 13.821 5.0052C13.9182 5.005 14.0126 4.97264 14.0895 4.91316C14.1663 4.85367 14.2214 4.77041 14.2459 4.67637L14.6964 2.95078C14.7574 2.71646 14.6168 2.47635 14.3819 2.41471L12.6569 1.96459C12.4217 1.90295 12.1816 2.04445 12.1206 2.2793C12.106 2.33513 12.1025 2.39329 12.1104 2.45046C12.1183 2.50763 12.1373 2.56268 12.1665 2.61247C12.1957 2.66226 12.2344 2.70581 12.2804 2.74062C12.3265 2.77544 12.3789 2.80084 12.4348 2.81537L13.1239 2.99473L5.82896 7.20656C5.61925 7.32844 5.54712 7.59674 5.66841 7.80697C5.70687 7.87392 5.76233 7.92952 5.82918 7.96815C5.89602 8.00678 5.97189 8.02708 6.04909 8.02699ZM16.1226 13.9835H17.5506V5.95072H16.1226V13.9835ZM15.2437 14.423C15.2437 14.5395 15.2901 14.6512 15.3724 14.7336C15.4548 14.816 15.5665 14.8623 15.683 14.8624H17.99C18.2326 14.8624 18.4296 14.6654 18.4296 14.423V5.51139C18.4295 5.39481 18.3832 5.28302 18.3008 5.20059C18.2183 5.11816 18.1065 5.07182 17.99 5.07176H15.683C15.4404 5.07176 15.2437 5.26881 15.2437 5.51139V14.423ZM12.0321 13.9835H13.4601V7.65533H12.0321V13.9835ZM11.5928 14.8624H13.8994C14.1421 14.8624 14.3391 14.6654 14.3391 14.423V7.216C14.3391 7.15826 14.3277 7.10108 14.3056 7.04773C14.2836 6.99438 14.2512 6.94591 14.2103 6.90508C14.1695 6.86425 14.121 6.83187 14.0677 6.80979C14.0143 6.7877 13.9572 6.77634 13.8994 6.77637H11.5928C11.535 6.77634 11.4778 6.7877 11.4245 6.80979C11.3711 6.83187 11.3227 6.86425 11.2818 6.90508C11.241 6.94591 11.2086 6.99438 11.1866 7.04773C11.1645 7.10108 11.1531 7.15826 11.1531 7.216V14.423C11.1531 14.6654 11.3502 14.8624 11.5928 14.8624ZM7.94185 13.9835H9.36954V9.35936H7.94185V13.9835ZM7.50222 14.8624H9.80917C9.92567 14.8623 10.0374 14.816 10.1198 14.7336C10.2021 14.6512 10.2484 14.5395 10.2485 14.423V8.91973C10.2485 8.80321 10.2022 8.69147 10.1198 8.60909C10.0374 8.5267 9.92568 8.48041 9.80917 8.48039H7.50222C7.44451 8.48035 7.38737 8.49169 7.33405 8.51375C7.28073 8.53582 7.23228 8.56818 7.19147 8.60898C7.15067 8.64979 7.11831 8.69823 7.09625 8.75156C7.07418 8.80488 7.06284 8.86202 7.06288 8.91973V14.423C7.06286 14.4807 7.07421 14.5379 7.09628 14.5912C7.11835 14.6445 7.15071 14.6929 7.19151 14.7337C7.23231 14.7745 7.28075 14.8069 7.33406 14.829C7.38738 14.851 7.44452 14.8624 7.50222 14.8624ZM5.2787 11.0631H3.85077V13.9835H5.2787V11.0631ZM6.15767 14.423V10.6238C6.15769 10.566 6.14633 10.5088 6.12425 10.4555C6.10216 10.4021 6.06978 10.3537 6.02895 10.3128C5.98813 10.272 5.93965 10.2396 5.8863 10.2175C5.83296 10.1955 5.77578 10.1841 5.71804 10.1841H3.41138C3.29479 10.1841 3.18297 10.2305 3.10053 10.3129C3.01809 10.3953 2.97176 10.5072 2.97175 10.6238V14.423C2.97183 14.5396 3.01818 14.6513 3.10062 14.7337C3.18306 14.8161 3.29483 14.8624 3.41138 14.8624H5.71804C5.77575 14.8624 5.83291 14.851 5.88624 14.829C5.93957 14.8069 5.98803 14.7746 6.02885 14.7338C6.06967 14.693 6.10206 14.6445 6.12417 14.5912C6.14627 14.5379 6.15765 14.4807 6.15767 14.423ZM4.50286 16.231H3.57943C3.33679 16.231 3.14009 16.428 3.14009 16.6706C3.14005 16.7283 3.15139 16.7855 3.17345 16.8388C3.19552 16.8921 3.22788 16.9406 3.26868 16.9814C3.30949 17.0222 3.35793 17.0545 3.41125 17.0766C3.46457 17.0987 3.52172 17.11 3.57943 17.11H4.50286C4.56058 17.11 4.61775 17.0987 4.67109 17.0766C4.72443 17.0546 4.7729 17.0222 4.81373 16.9814C4.85455 16.9406 4.88694 16.8922 4.90904 16.8388C4.93113 16.7855 4.9425 16.7283 4.94249 16.6706C4.94241 16.5541 4.89607 16.4423 4.81364 16.3598C4.73121 16.2774 4.61944 16.2311 4.50286 16.231ZM17.8225 16.231H6.56941C6.32683 16.231 6.13007 16.428 6.13007 16.6706C6.13003 16.7283 6.14137 16.7855 6.16343 16.8388C6.1855 16.8921 6.21786 16.9406 6.25866 16.9814C6.29947 17.0222 6.34791 17.0545 6.40123 17.0766C6.45455 17.0987 6.5117 17.11 6.56941 17.11H17.8226C17.8803 17.11 17.9374 17.0986 17.9907 17.0766C18.044 17.0545 18.0925 17.0221 18.1333 16.9813C18.1741 16.9405 18.2064 16.8921 18.2285 16.8388C18.2506 16.7855 18.2619 16.7283 18.2619 16.6706C18.2618 16.428 18.0649 16.231 17.8225 16.231ZM4.50286 21.064H3.57943C3.46291 21.064 3.35117 21.1103 3.26878 21.1927C3.1864 21.2751 3.1401 21.3868 3.14009 21.5033C3.14009 21.746 3.33685 21.943 3.57943 21.943H4.50286C4.61944 21.9429 4.73123 21.8966 4.81366 21.8141C4.89609 21.7317 4.94243 21.6199 4.94249 21.5033C4.9424 21.3868 4.89604 21.275 4.81361 21.1927C4.73117 21.1103 4.6194 21.064 4.50286 21.064ZM4.94243 19.0869C4.94243 18.8443 4.74544 18.6476 4.5028 18.6476H3.57937C3.46409 18.6495 3.35417 18.6966 3.27332 18.7788C3.19246 18.861 3.14715 18.9716 3.14715 19.0869C3.14715 19.2022 3.19246 19.3129 3.27332 19.3951C3.35417 19.4773 3.46409 19.5244 3.57937 19.5263H4.5028C4.61935 19.5263 4.73114 19.48 4.81358 19.3976C4.89602 19.3152 4.94237 19.2035 4.94243 19.0869Z" fill="black"/>
</g>
</g>
</g>
<defs>
<clipPath id="clip0_1120_9443">
<rect width="30" height="30" fill="white"/>
</clipPath>
</defs>
</svg>
