<svg width="20" height="21" viewBox="0 0 20 21" fill="none" xmlns="http://www.w3.org/2000/svg">
<g id="Frame" clip-path="url(#clip0_951_21547)">
<g id="Group">
<path id="Vector" d="M11.7438 18.0414L11.6594 18.0633V20.132L11.7938 20.1039C13.9599 19.6333 15.8785 18.3851 17.1864 16.5954C18.4944 14.8057 19.1011 12.5987 18.8917 10.3919C18.6823 8.18514 17.6713 6.13164 16.0501 4.61991C14.4288 3.10819 12.3098 2.24309 10.0938 2.18828V0.285156L6.225 3.28516L10.0938 6.28203V4.19766C11.7958 4.22463 13.4303 4.86789 14.6943 6.00816C15.9582 7.14842 16.7657 8.70833 16.9672 10.3986C17.1687 12.0889 16.7504 13.7949 15.7898 15.2003C14.8293 16.6057 13.3918 17.6151 11.7438 18.0414ZM3.21563 5.25078C1.95133 6.66505 1.16892 8.44434 0.98125 10.332V10.4539H2.99375V10.357C3.16535 8.9906 3.73725 7.70545 4.6375 6.66328L4.70625 6.58516L3.29375 5.16016L3.21563 5.25078ZM5.875 16.9445L4.44375 18.3758L4.54688 18.4508C6.11315 19.6457 8.02994 20.2905 10 20.2852H10.1094V18.2727H10C8.55679 18.2744 7.1485 17.8289 5.96875 16.9977L5.875 16.9445ZM0.978125 12.1414C1.16815 14.0291 1.95148 15.808 3.21563 17.2227L3.29375 17.3133L4.71562 15.8914L4.64688 15.8133C3.74799 14.7694 3.17727 13.4833 3.00625 12.1164V12.0164H0.96875L0.978125 12.1414Z" fill="#075B5D"/>
</g>
</g>
<defs>
<clipPath id="clip0_951_21547">
<rect width="20" height="20" fill="white" transform="translate(0 0.285156)"/>
</clipPath>
</defs>
</svg>
