<svg width="30" height="31" viewBox="0 0 30 31" fill="none" xmlns="http://www.w3.org/2000/svg">
<g id="Frame">
<g id="Group">
<g id="Group_2">
<path id="Vector" d="M28.5357 1.83838V14.8274L26.4621 14.9019L24.3861 14.9798V1.83838H28.5357ZM15.4628 1.83838V19.5952L11.3138 17.889V1.83838H15.4628ZM21.999 7.52022V22.4927L20.8494 23.5562L19.7707 24.5569L17.85 22.6239V7.52022H21.999ZM8.92378 7.52022V18.5944L4.7771 17.5485V7.52022H8.92378Z" fill="#075B5D"/>
</g>
<path id="Vector_2" d="M28.5357 1.83838V14.8274L26.462 14.9019V1.83838H28.5357ZM15.4628 1.83838V18.7438L13.3868 17.889V1.83838H15.4628ZM21.999 7.52022V22.4927L20.8493 23.5562L19.923 22.6239V7.52022H21.999ZM8.92376 7.52022V18.0712L6.85071 17.5485V7.52022H8.92376Z" fill="#075B5D"/>
<path id="Vector_3" d="M29.3215 19.2665L29.2078 20.2192L28.5358 19.5231L27.2631 18.206L24.3862 21.1362L21.999 23.5714L21.1178 24.4702L19.6242 25.9907L18.0891 24.4702L17.85 24.2341L15.46 21.8716L12.6281 19.0661L10.7373 20.954L10.3307 20.3271L12.6281 18.0325L15.46 20.838L17.85 23.2005L18.0891 23.4366L19.6242 24.9571L21.1178 23.4366L21.999 22.5372L24.3862 20.1026L27.2631 17.1724L28.5358 18.4895L29.3215 19.2665Z" fill="#FF9F22"/>
<path id="Vector_4" d="M29.9366 14.0923L29.2077 20.2194L27.263 18.2062L26.7966 17.6472L24.3861 20.1028L21.999 22.5374L21.1177 23.4368L19.6241 24.9573L18.089 23.4368L17.8499 23.2007L15.4599 20.8382L12.6281 18.0327L10.3306 20.3272L9.60168 19.1981L12.6281 16.1747L15.4599 18.9796L17.8499 21.3427L19.6241 23.0993L21.999 20.6794L24.3861 18.2448L25.7964 16.8081L23.8095 14.8212L24.3861 14.7526L24.7329 14.711L28.5357 14.2599L29.9366 14.0923Z" fill="#FFC14F"/>
<path id="Vector_5" d="M11.1375 23.0274C11.1375 25.6501 9.31814 27.8462 6.87185 28.4198V28.4228C6.55544 28.4972 6.23259 28.5423 5.90095 28.5604C5.89509 28.5634 5.8863 28.5634 5.87693 28.5604C5.78435 28.5663 5.6947 28.5692 5.60212 28.5692C4.81052 28.5692 4.05466 28.4017 3.3738 28.1005C1.42615 27.2433 0.0638428 25.2956 0.0638428 23.028C0.0638428 19.9688 2.54353 17.4868 5.60212 17.4868C5.6947 17.4868 5.78728 17.4897 5.87693 17.4927C6.94334 17.5466 7.9324 17.8987 8.75681 18.4753C9.73357 19.1532 10.4836 20.1394 10.8627 21.2925C11.042 21.838 11.1375 22.421 11.1375 23.0274Z" fill="#F7D33E"/>
<path id="Vector_6" d="M11.1374 23.0274C11.1374 25.6501 9.31809 27.8462 6.8718 28.4198V28.4228C6.5554 28.4972 6.23254 28.5423 5.9009 28.5604C5.89504 28.5634 5.88626 28.5634 5.87688 28.5604C5.1925 28.5247 4.54446 28.3636 3.9468 28.1005C1.99622 27.2433 0.633911 25.2956 0.633911 23.028C0.633911 20.0673 2.95833 17.6479 5.87688 17.4927C6.94329 17.5466 7.93235 17.8987 8.75676 18.4753C9.73352 19.1532 10.4835 20.1394 10.8626 21.2925C11.0419 21.838 11.1374 22.421 11.1374 23.0274Z" fill="#FFDE50"/>
<path id="Vector_7" d="M9.95151 23.0276C9.95151 25.3069 8.20073 27.1802 5.97241 27.3653C5.84995 27.3771 5.72749 27.3835 5.6021 27.3835C5.21948 27.3835 4.8521 27.3325 4.50288 27.2429C2.62964 26.756 1.24976 25.0532 1.24976 23.0276C1.24976 20.6229 3.19741 18.6724 5.6021 18.6724C5.72749 18.6724 5.85288 18.6782 5.97534 18.6905C8.20073 18.878 9.95151 20.7483 9.95151 23.0276Z" fill="#F4AF03"/>
<path id="Vector_8" d="M9.95149 23.0276C9.95149 25.3069 8.20071 27.1802 5.97239 27.3653C5.72161 27.3442 5.47961 27.3026 5.24641 27.2429C3.37317 26.756 1.99329 25.0532 1.99329 23.0276C1.99329 20.7483 3.74407 18.8751 5.97532 18.6899C8.20071 18.878 9.95149 20.7483 9.95149 23.0276Z" fill="#FFBD00"/>
<path id="Vector_9" d="M5.60034 22.6404C5.2564 22.6404 4.9769 22.3604 4.9769 22.0164C4.9769 21.6725 5.2564 21.3924 5.60034 21.3924C5.94429 21.3924 6.22378 21.6725 6.22378 22.0164C6.22378 22.2215 6.3896 22.3873 6.59468 22.3873C6.79976 22.3873 6.96558 22.2215 6.96558 22.0164C6.96558 21.3936 6.54605 20.8674 5.97476 20.7045V20.3992C5.97476 20.1941 5.80894 20.0283 5.60386 20.0283C5.39878 20.0283 5.23296 20.1941 5.23296 20.3992V20.7027C4.65815 20.8639 4.23511 21.3912 4.23511 22.017C4.23511 22.7699 4.84741 23.3828 5.60034 23.3828C5.94429 23.3828 6.22378 23.6629 6.22378 24.0068C6.22378 24.3508 5.94429 24.6309 5.60034 24.6309C5.2564 24.6309 4.9769 24.3508 4.9769 24.0068C4.9769 23.8018 4.81108 23.6359 4.60601 23.6359C4.40093 23.6359 4.23511 23.8018 4.23511 24.0068C4.23511 24.6326 4.65815 25.16 5.23296 25.3211V25.6568C5.23296 25.8619 5.39878 26.0277 5.60386 26.0277C5.80894 26.0277 5.97476 25.8619 5.97476 25.6568V25.3193C6.54605 25.1559 6.96558 24.6303 6.96558 24.0074C6.96558 23.2527 6.35327 22.6404 5.60034 22.6404Z" fill="white"/>
</g>
</g>
</svg>
